<svg width="64" height="64" viewBox="0 0 64 64" fill="none" xmlns="http://www.w3.org/2000/svg">
<path fill-rule="evenodd" clip-rule="evenodd" d="M30.05 15.9805L29 10.5422L27.95 15.9805L22.3555 17.0012L27.95 18.0218L29 23.4601L30.05 18.0218L35.6305 17.0012L30.05 15.9805ZM26.4055 10.0023C24.036 10.0752 21.65 10.2506 19.3111 10.5559C16.8056 10.8771 14.272 11.3442 11.8555 12.0733C10.8805 12.3649 9.91952 12.6998 8.99144 13.1076C8.24144 13.4425 7.50548 13.823 6.83048 14.3037C5.94452 14.9302 5 15.8483 5 17.0012C5 18.154 5.94452 19.0721 6.83048 19.7123C7.50548 20.1793 8.24144 20.5575 8.99144 20.8924C9.92192 21.3002 10.8805 21.6351 11.8555 21.9267C14.2695 22.6558 16.8055 23.1228 19.3111 23.4441C21.6501 23.7494 24.0361 23.9248 26.4055 23.9977C24.4555 23.9248 22.5055 23.7494 20.586 23.4578C18.425 23.1229 16.2219 22.6558 14.1666 21.9268C12.6806 21.4164 11.047 20.701 9.84704 19.71C9.008 19.0242 8.258 18.1061 8.258 16.9989C8.258 15.8916 9.008 14.9712 9.84704 14.2877C11.047 13.2967 12.683 12.5813 14.1666 12.071C16.222 11.3419 18.4275 10.8748 20.586 10.54C22.5055 10.262 24.4555 10.0729 26.4055 10V10.0023ZM31.5945 10.0023C33.5445 10.0752 35.4945 10.2643 37.414 10.5422C39.575 10.8771 41.7781 11.3442 43.8334 12.0732C45.3194 12.5836 46.9389 13.299 48.153 14.29C48.992 14.9758 49.742 15.8939 49.742 17.0011C49.742 18.1084 48.992 19.0288 48.153 19.7123C46.9389 20.7033 45.317 21.4187 43.8334 21.929C41.778 22.6581 39.5725 23.1252 37.414 23.46C35.4945 23.7517 33.5445 23.9271 31.5945 24C33.964 23.9271 36.3336 23.7517 38.6889 23.4464C41.1944 23.1251 43.728 22.6581 46.1445 21.929C47.1195 21.6374 48.0805 21.3025 49.0086 20.8947C49.7586 20.5598 50.4945 20.1793 51.1695 19.7146C52.0555 19.0721 53 18.154 53 17.0035C53 15.8506 52.0555 14.9325 51.1695 14.306C50.4945 13.8253 49.7586 13.4448 49.0086 13.1099C48.0781 12.7021 47.1195 12.3672 46.1445 12.0756C43.7305 11.3465 41.1945 10.8794 38.6889 10.5582C36.3499 10.2529 33.9639 10.0775 31.5945 10.0046V10.0023Z" fill="#1D1238"/>
</svg>
