<svg width="64" height="64" viewBox="0 0 64 64" fill="none" xmlns="http://www.w3.org/2000/svg">
<g clip-path="url(#clip0_1_2)">
<path fill-rule="evenodd" clip-rule="evenodd" d="M36.1234 25.1289C36.0367 25.0066 35.93 24.8619 35.8234 24.7364C35.6967 24.5916 35.59 24.4468 35.4834 24.3053C35.3967 24.2023 35.3334 24.0994 35.27 23.9964C33.1567 21.011 32.0068 17.263 32.0068 13C32.0068 17.2627 30.8334 21.0106 28.7435 23.9964C28.6801 24.0994 28.5935 24.2023 28.5301 24.3053C28.4235 24.4501 28.2968 24.5948 28.1901 24.7364C28.0835 24.8586 27.9768 25.0034 27.8702 25.1289C24.4768 29.1438 19.1867 31.5116 12.6605 31.5116C19.1871 31.5116 24.4808 33.8601 27.8702 37.8751C27.9768 37.8944 28.0835 37.8944 28.2102 37.8944C29.4702 37.9362 30.7268 37.9555 32.0068 37.9555C33.2668 37.9555 34.5468 37.9362 35.8034 37.8944C35.91 37.8944 36.0167 37.8944 36.1234 37.8751C39.5167 33.8601 44.8264 31.5116 51.333 31.5116C44.8264 31.5116 39.5128 29.1438 36.1234 25.1289ZM36.3367 24.7589C49.733 25.2736 59.9968 28.0951 59.9968 31.5116C59.9968 34.9089 49.7373 37.7303 36.3367 38.245C36.1667 38.245 35.9967 38.2643 35.8234 38.2643C34.5634 38.3062 33.3067 38.3255 32.0034 38.3255C30.7034 38.3255 29.4234 38.3062 28.1834 38.2643C28.0134 38.2643 27.8434 38.245 27.6701 38.245C14.2498 37.7303 4.00996 34.9089 4.00996 31.5116C4.00996 28.0951 14.2498 25.2736 27.6701 24.7589C27.7767 24.6141 27.9034 24.4694 28.0334 24.3053C12.2273 24.7589 0 27.8055 0 31.5116C0 35.1985 12.223 38.2451 28.0334 38.6987H28.5234C29.6534 38.7405 30.8267 38.7598 32 38.7598C33.1733 38.7598 34.3267 38.7405 35.4766 38.6987H35.9666C51.7727 38.2451 64 35.1985 64 31.5116C64 27.8055 51.777 24.7589 35.9666 24.3053C36.0933 24.4694 36.1999 24.6141 36.3299 24.7589H36.3367ZM28.7834 39.0876C30.8534 42.0538 32.0033 45.7599 32.0033 50C32.0033 45.7599 33.1333 42.0538 35.2033 39.0876C34.1367 39.1069 33.07 39.1069 32.0033 39.1069C30.9367 39.1069 29.87 39.1069 28.7834 39.0876Z" fill="#291A50"/>
</g>
<defs>
<clipPath id="clip0_1_2">
<rect width="64" height="64" fill="white"/>
</clipPath>
</defs>
</svg>
