<svg width="983" height="337" viewBox="0 0 983 337" fill="none" xmlns="http://www.w3.org/2000/svg">
<path d="M863.5 44C929.498 44 983 97.502 983 163.5C983 229.498 929.498 283 863.5 283H306.5C296.997 283 287.754 281.888 278.892 279.792C266.197 288.742 250.713 294 234 294H228C184.922 294 150 259.078 150 216C150 187.602 165.176 162.75 187.859 149.108C194.967 89.8964 245.373 44 306.5 44H863.5ZM101.5 150C124.42 150 143 168.58 143 191.5V192.5C143 215.42 124.42 234 101.5 234C78.5802 234 60 215.42 60 192.5V191.5C60 168.58 78.5802 150 101.5 150ZM19.5 169C30.2696 169 39 177.73 39 188.5C39 199.27 30.2696 208 19.5 208C8.73045 208 0 199.27 0 188.5C0 177.73 8.73045 169 19.5 169Z" fill="#F2F1FF"/>
</svg>
