<svg width="27" height="30" viewBox="0 0 27 30" fill="none" xmlns="http://www.w3.org/2000/svg">
<path d="M12.4573 0.739652C12.7232 -0.246627 14.1225 -0.246631 14.3884 0.739648L16.9015 10.0617C16.9879 10.3824 17.2279 10.6392 17.542 10.7471L26.1708 13.7124C27.0708 14.0216 27.0708 15.2945 26.1708 15.6038L17.542 18.569C17.2279 18.6769 16.9879 18.9338 16.9015 19.2544L14.3884 28.5765C14.1225 29.5628 12.7232 29.5628 12.4573 28.5765L9.94425 19.2544C9.8578 18.9338 9.61779 18.6769 9.30371 18.569L0.6749 15.6038C-0.225116 15.2945 -0.225115 14.0216 0.674901 13.7124L9.30371 10.7471C9.61779 10.6392 9.8578 10.3824 9.94425 10.0617L12.4573 0.739652Z" fill="white"/>
</svg>
